<svg version="1.1" viewBox="0.0 0.0 1024.0 768.0" fill="none" stroke="none" stroke-linecap="square" stroke-miterlimit="10" xmlns:xlink="http://www.w3.org/1999/xlink" xmlns="http://www.w3.org/2000/svg"><clipPath id="g8096210c6a_0_8.0"><path d="m0 0l1024.0 0l0 768.0l-1024.0 0l0 -768.0z" clip-rule="nonzero"/></clipPath><g clip-path="url(#g8096210c6a_0_8.0)"><path fill="none" d="m0 0l1024.0 0l0 768.0l-1024.0 0z" fill-rule="evenodd"/><path fill="#000000" fill-opacity="0.0" d="m270.77158 735.3727l482.4567 0l0 13.322876l-482.4567 0z" fill-rule="evenodd"/><path fill="#00133d" d="m349.72424 739.1596l3.03125 0q1.1875 0 2.09375 0.46875q0.90625 0.46875 1.40625 1.328125q0.5 0.84375 0.5 1.921875q0 1.09375 -0.5 1.9375q-0.5 0.84375 -1.40625 1.328125q-0.90625 0.46875 -2.09375 0.46875l-3.03125 0l0 -7.453125zm2.984375 6.765625q0.984375 0 1.71875 -0.375q0.734375 -0.390625 1.140625 -1.078125q0.40625 -0.6875 0.40625 -1.59375q0 -0.890625 -0.40625 -1.578125q-0.40625 -0.6875 -1.140625 -1.078125q-0.734375 -0.390625 -1.71875 -0.390625l-2.203125 0l0 6.09375l2.203125 0zm10.382965 -1.3125l-4.15625 0l-0.890625 2.0l-0.828125 0l3.421875 -7.453125l0.765625 0l3.421875 7.453125l-0.84375 0l-0.890625 -2.0zm-0.28125 -0.625l-1.796875 -4.015625l-1.78125 4.015625l3.578125 0zm3.25 -4.828125l3.03125 0q1.1875 0 2.09375 0.46875q0.90625 0.46875 1.40625 1.328125q0.5 0.84375 0.5 1.921875q0 1.09375 -0.5 1.9375q-0.5 0.84375 -1.40625 1.328125q-0.90625 0.46875 -2.09375 0.46875l-3.03125 0l0 -7.453125zm2.984375 6.765625q0.984375 0 1.71875 -0.375q0.734375 -0.390625 1.140625 -1.078125q0.40625 -0.6875 0.40625 -1.59375q0 -0.890625 -0.40625 -1.578125q-0.40625 -0.6875 -1.140625 -1.078125q-0.734375 -0.390625 -1.71875 -0.390625l-2.203125 0l0 6.09375l2.203125 0zm9.06778 0.75q-1.09375 0 -2.0 -0.484375q-0.90625 -0.5 -1.421875 -1.359375q-0.5 -0.875 -0.5 -1.953125q0 -1.078125 0.5 -1.9375q0.515625 -0.859375 1.421875 -1.34375q0.90625 -0.5 2.0 -0.5q1.109375 0 2.0 0.484375q0.890625 0.484375 1.40625 1.359375q0.515625 0.859375 0.515625 1.9375q0 1.078125 -0.515625 1.953125q-0.515625 0.859375 -1.40625 1.359375q-0.890625 0.484375 -2.0 0.484375zm0 -0.703125q0.890625 0 1.59375 -0.390625q0.71875 -0.40625 1.125 -1.109375q0.40625 -0.71875 0.40625 -1.59375q0 -0.875 -0.40625 -1.578125q-0.40625 -0.703125 -1.125 -1.09375q-0.703125 -0.40625 -1.59375 -0.40625q-0.875 0 -1.59375 0.40625q-0.71875 0.390625 -1.140625 1.09375q-0.40625 0.703125 -0.40625 1.578125q0 0.875 0.40625 1.59375q0.421875 0.703125 1.140625 1.109375q0.71875 0.390625 1.59375 0.390625zm10.055847 -2.53125l10.65625 0l0 0.546875l-10.65625 0l0 -0.546875zm24.563507 -4.34375q1.421875 0 2.546875 0.59375q1.125 0.578125 1.75 1.65625q0.640625 1.0625 0.640625 2.4375q0 1.359375 -0.46875 2.125q-0.46875 0.75 -1.296875 0.75q-0.53125 0 -0.859375 -0.296875q-0.328125 -0.3125 -0.359375 -0.859375q-0.3125 0.5625 -0.875 0.859375q-0.546875 0.296875 -1.25 0.296875q-0.75 0 -1.359375 -0.34375q-0.59375 -0.359375 -0.9375 -0.984375q-0.34375 -0.640625 -0.34375 -1.421875q0 -0.796875 0.34375 -1.40625q0.34375 -0.625 0.9375 -0.984375q0.609375 -0.359375 1.359375 -0.359375q0.6875 0 1.234375 0.296875q0.546875 0.296875 0.875 0.828125l0 -1.078125l0.6875 0l0 4.046875q0 0.421875 0.1875 0.625q0.1875 0.1875 0.484375 0.1875q0.5 0 0.78125 -0.59375q0.296875 -0.609375 0.296875 -1.671875q0 -1.234375 -0.5625 -2.171875q-0.546875 -0.953125 -1.546875 -1.46875q-0.984375 -0.53125 -2.265625 -0.53125q-1.296875 0 -2.296875 0.546875q-0.984375 0.53125 -1.546875 1.515625q-0.546875 0.96875 -0.546875 2.21875q0 1.25 0.546875 2.234375q0.546875 0.96875 1.53125 1.515625q0.984375 0.546875 2.265625 0.546875q0.5 0 1.046875 -0.125q0.5625 -0.109375 1.0 -0.34375l0.1875 0.515625q-0.46875 0.234375 -1.078125 0.359375q-0.59375 0.125 -1.15625 0.125q-1.453125 0 -2.578125 -0.625q-1.109375 -0.609375 -1.734375 -1.703125q-0.625 -1.109375 -0.625 -2.5q0 -1.40625 0.625 -2.5q0.640625 -1.09375 1.765625 -1.703125q1.140625 -0.609375 2.59375 -0.609375zm-0.078125 6.953125q0.578125 0 1.03125 -0.265625q0.46875 -0.265625 0.734375 -0.75q0.265625 -0.484375 0.265625 -1.125q0 -0.625 -0.265625 -1.109375q-0.265625 -0.5 -0.734375 -0.75q-0.453125 -0.265625 -1.03125 -0.265625q-0.578125 0 -1.046875 0.265625q-0.46875 0.265625 -0.734375 0.75q-0.25 0.484375 -0.25 1.109375q0 0.625 0.25 1.109375q0.265625 0.484375 0.734375 0.765625q0.46875 0.265625 1.046875 0.265625zm9.554871 -6.890625q1.4375 0 2.234375 0.6875q0.8125 0.671875 0.8125 1.859375q0 1.203125 -0.8125 1.875q-0.796875 0.671875 -2.234375 0.671875l-2.0 0l0 2.359375l-0.78125 0l0 -7.453125l2.78125 0zm-0.015625 4.40625q1.109375 0 1.6875 -0.484375q0.59375 -0.484375 0.59375 -1.375q0 -0.90625 -0.59375 -1.390625q-0.578125 -0.484375 -1.6875 -0.484375l-1.984375 0l0 3.734375l1.984375 0zm6.8719788 3.09375q-0.8125 0 -1.46875 -0.359375q-0.640625 -0.375 -1.015625 -1.015625q-0.375 -0.65625 -0.375 -1.46875q0 -0.828125 0.375 -1.46875q0.375 -0.65625 1.015625 -1.015625q0.65625 -0.359375 1.46875 -0.359375q0.8125 0 1.453125 0.359375q0.65625 0.359375 1.015625 1.015625q0.375 0.640625 0.375 1.46875q0 0.8125 -0.375 1.46875q-0.359375 0.640625 -1.015625 1.015625q-0.640625 0.359375 -1.453125 0.359375zm0 -0.671875q0.59375 0 1.0625 -0.265625q0.484375 -0.265625 0.75 -0.765625q0.265625 -0.5 0.265625 -1.140625q0 -0.640625 -0.265625 -1.140625q-0.265625 -0.5 -0.75 -0.765625q-0.46875 -0.28125 -1.0625 -0.28125q-0.59375 0 -1.078125 0.28125q-0.46875 0.265625 -0.75 0.765625q-0.265625 0.5 -0.265625 1.140625q0 0.640625 0.265625 1.140625q0.28125 0.5 0.75 0.765625q0.484375 0.265625 1.078125 0.265625zm5.1190186 -3.875q0.265625 -0.578125 0.78125 -0.859375q0.53125 -0.28125 1.3125 -0.28125l0 0.734375l-0.171875 -0.015625q-0.890625 0 -1.390625 0.546875q-0.5 0.53125 -0.5 1.515625l0 2.859375l-0.75 0l0 -5.609375l0.71875 0l0 1.109375zm6.651947 4.15625q-0.203125 0.1875 -0.515625 0.296875q-0.3125 0.09375 -0.65625 0.09375q-0.796875 0 -1.21875 -0.421875q-0.421875 -0.421875 -0.421875 -1.203125l0 -3.390625l-1.0 0l0 -0.640625l1.0 0l0 -1.21875l0.75 0l0 1.21875l1.703125 0l0 0.640625l-1.703125 0l0 3.34375q0 0.5 0.25 0.765625q0.25 0.265625 0.71875 0.265625q0.234375 0 0.453125 -0.078125q0.21875 -0.078125 0.375 -0.21875l0.265625 0.546875zm3.4675598 0.390625q-0.8125 0 -1.46875 -0.359375q-0.640625 -0.375 -1.015625 -1.015625q-0.375 -0.65625 -0.375 -1.46875q0 -0.828125 0.375 -1.46875q0.375 -0.65625 1.015625 -1.015625q0.65625 -0.359375 1.46875 -0.359375q0.8125 0 1.453125 0.359375q0.65625 0.359375 1.015625 1.015625q0.375 0.640625 0.375 1.46875q0 0.8125 -0.375 1.46875q-0.359375 0.640625 -1.015625 1.015625q-0.640625 0.359375 -1.453125 0.359375zm0 -0.671875q0.59375 0 1.0625 -0.265625q0.484375 -0.265625 0.75 -0.765625q0.265625 -0.5 0.265625 -1.140625q0 -0.640625 -0.265625 -1.140625q-0.265625 -0.5 -0.75 -0.765625q-0.46875 -0.28125 -1.0625 -0.28125q-0.59375 0 -1.078125 0.28125q-0.46875 0.265625 -0.75 0.765625q-0.265625 0.5 -0.265625 1.140625q0 0.640625 0.265625 1.140625q0.28125 0.5 0.75 0.765625q0.484375 0.265625 1.078125 0.265625zm4.556549 -6.828125l3.03125 0q1.1875 0 2.09375 0.46875q0.90625 0.46875 1.40625 1.328125q0.5 0.84375 0.5 1.921875q0 1.09375 -0.5 1.9375q-0.5 0.84375 -1.40625 1.328125q-0.90625 0.46875 -2.09375 0.46875l-3.03125 0l0 -7.453125zm2.984375 6.765625q0.984375 0 1.71875 -0.375q0.734375 -0.390625 1.140625 -1.078125q0.40625 -0.6875 0.40625 -1.59375q0 -0.890625 -0.40625 -1.578125q-0.40625 -0.6875 -1.140625 -1.078125q-0.734375 -0.390625 -1.71875 -0.390625l-2.203125 0l0 6.09375l2.203125 0zm5.6615295 -4.921875l0.75 0l0 5.609375l-0.75 0l0 -5.609375zm0.375 -1.21875q-0.234375 0 -0.390625 -0.15625q-0.15625 -0.171875 -0.15625 -0.390625q0 -0.21875 0.15625 -0.375q0.15625 -0.15625 0.390625 -0.15625q0.234375 0 0.390625 0.15625q0.171875 0.15625 0.171875 0.359375q0 0.234375 -0.171875 0.40625q-0.15625 0.15625 -0.390625 0.15625zm7.6790466 1.21875l0 4.921875q0 1.4375 -0.703125 2.125q-0.703125 0.6875 -2.109375 0.6875q-0.765625 0 -1.46875 -0.234375q-0.703125 -0.234375 -1.140625 -0.640625l0.390625 -0.5625q0.40625 0.359375 0.984375 0.5625q0.578125 0.203125 1.21875 0.203125q1.0625 0 1.5625 -0.5q0.5 -0.5 0.5 -1.546875l0 -0.703125q-0.34375 0.53125 -0.921875 0.8125q-0.5625 0.265625 -1.265625 0.265625q-0.78125 0 -1.4375 -0.34375q-0.640625 -0.34375 -1.015625 -0.96875q-0.359375 -0.625 -0.359375 -1.40625q0 -0.796875 0.359375 -1.40625q0.375 -0.625 1.015625 -0.953125q0.640625 -0.34375 1.4375 -0.34375q0.71875 0 1.296875 0.28125q0.578125 0.28125 0.921875 0.828125l0 -1.078125l0.734375 0zm-2.875 4.71875q0.609375 0 1.09375 -0.25q0.5 -0.265625 0.765625 -0.734375q0.28125 -0.46875 0.28125 -1.0625q0 -0.59375 -0.28125 -1.0625q-0.265625 -0.46875 -0.75 -0.71875q-0.484375 -0.265625 -1.109375 -0.265625q-0.609375 0 -1.09375 0.265625q-0.484375 0.25 -0.765625 0.71875q-0.265625 0.46875 -0.265625 1.0625q0 0.59375 0.265625 1.0625q0.28125 0.46875 0.765625 0.734375q0.484375 0.25 1.09375 0.25zm4.997772 -4.71875l0.75 0l0 5.609375l-0.75 0l0 -5.609375zm0.375 -1.21875q-0.234375 0 -0.390625 -0.15625q-0.15625 -0.171875 -0.15625 -0.390625q0 -0.21875 0.15625 -0.375q0.15625 -0.15625 0.390625 -0.15625q0.234375 0 0.390625 0.15625q0.171875 0.15625 0.171875 0.359375q0 0.234375 -0.171875 0.40625q-0.15625 0.15625 -0.390625 0.15625zm5.4290466 6.484375q-0.203125 0.1875 -0.515625 0.296875q-0.3125 0.09375 -0.65625 0.09375q-0.796875 0 -1.21875 -0.421875q-0.421875 -0.421875 -0.421875 -1.203125l0 -3.390625l-1.0 0l0 -0.640625l1.0 0l0 -1.21875l0.75 0l0 1.21875l1.703125 0l0 0.640625l-1.703125 0l0 3.34375q0 0.5 0.25 0.765625q0.25 0.265625 0.71875 0.265625q0.234375 0 0.453125 -0.078125q0.21875 -0.078125 0.375 -0.21875l0.265625 0.546875zm3.342102 -5.296875q1.09375 0 1.671875 0.546875q0.59375 0.546875 0.59375 1.625l0 3.46875l-0.71875 0l0 -0.875q-0.25 0.4375 -0.75 0.6875q-0.5 0.234375 -1.1875 0.234375q-0.9375 0 -1.484375 -0.4375q-0.546875 -0.453125 -0.546875 -1.1875q0 -0.71875 0.515625 -1.15625q0.515625 -0.4375 1.640625 -0.4375l1.78125 0l0 -0.328125q0 -0.734375 -0.40625 -1.109375q-0.40625 -0.375 -1.1875 -0.375q-0.53125 0 -1.03125 0.171875q-0.484375 0.171875 -0.828125 0.484375l-0.34375 -0.5625q0.421875 -0.359375 1.015625 -0.546875q0.609375 -0.203125 1.265625 -0.203125zm-0.265625 5.09375q0.640625 0 1.09375 -0.28125q0.46875 -0.296875 0.6875 -0.859375l0 -0.90625l-1.765625 0q-1.4375 0 -1.4375 1.0q0 0.484375 0.375 0.765625q0.375 0.28125 1.046875 0.28125zm4.599762 -7.359375l0.75 0l0 7.90625l-0.75 0l0 -7.90625zm10.236633 7.21875l0 0.6875l-5.21875 0l0 -0.546875l3.09375 -3.03125q0.59375 -0.578125 0.796875 -1.0q0.203125 -0.421875 0.203125 -0.84375q0 -0.65625 -0.453125 -1.015625q-0.453125 -0.375 -1.296875 -0.375q-1.3125 0 -2.03125 0.828125l-0.546875 -0.46875q0.4375 -0.515625 1.109375 -0.78125q0.6875 -0.28125 1.53125 -0.28125q1.140625 0 1.8125 0.53125q0.671875 0.53125 0.671875 1.46875q0 0.578125 -0.265625 1.109375q-0.25 0.53125 -0.96875 1.234375l-2.53125 2.484375l4.09375 0zm3.9007874 0.75q-0.859375 0 -1.546875 -0.453125q-0.671875 -0.46875 -1.0625 -1.3125q-0.375 -0.859375 -0.375 -2.03125q0 -1.15625 0.375 -2.015625q0.390625 -0.859375 1.0625 -1.3125q0.6875 -0.453125 1.546875 -0.453125q0.859375 0 1.53125 0.453125q0.6875 0.453125 1.0625 1.3125q0.390625 0.859375 0.390625 2.015625q0 1.171875 -0.390625 2.03125q-0.375 0.84375 -1.0625 1.3125q-0.671875 0.453125 -1.53125 0.453125zm0 -0.703125q0.640625 0 1.140625 -0.359375q0.5 -0.359375 0.765625 -1.046875q0.28125 -0.703125 0.28125 -1.6875q0 -0.96875 -0.28125 -1.65625q-0.265625 -0.703125 -0.765625 -1.0625q-0.5 -0.359375 -1.140625 -0.359375q-0.65625 0 -1.15625 0.359375q-0.484375 0.359375 -0.765625 1.0625q-0.28125 0.6875 -0.28125 1.65625q0 0.984375 0.28125 1.6875q0.28125 0.6875 0.765625 1.046875q0.5 0.359375 1.15625 0.359375zm9.142548 -0.046875l0 0.6875l-5.21875 0l0 -0.546875l3.09375 -3.03125q0.59375 -0.578125 0.796875 -1.0q0.203125 -0.421875 0.203125 -0.84375q0 -0.65625 -0.453125 -1.015625q-0.453125 -0.375 -1.296875 -0.375q-1.3125 0 -2.03125 0.828125l-0.546875 -0.46875q0.4375 -0.515625 1.109375 -0.78125q0.6875 -0.28125 1.53125 -0.28125q1.140625 0 1.8125 0.53125q0.671875 0.53125 0.671875 1.46875q0 0.578125 -0.265625 1.109375q-0.25 0.53125 -0.96875 1.234375l-2.53125 2.484375l4.09375 0zm3.9007568 0.75q-0.859375 0 -1.546875 -0.453125q-0.671875 -0.46875 -1.0625 -1.3125q-0.375 -0.859375 -0.375 -2.03125q0 -1.15625 0.375 -2.015625q0.390625 -0.859375 1.0625 -1.3125q0.6875 -0.453125 1.546875 -0.453125q0.859375 0 1.53125 0.453125q0.6875 0.453125 1.0625 1.3125q0.390625 0.859375 0.390625 2.015625q0 1.171875 -0.390625 2.03125q-0.375 0.84375 -1.0625 1.3125q-0.671875 0.453125 -1.53125 0.453125zm0 -0.703125q0.640625 0 1.140625 -0.359375q0.5 -0.359375 0.765625 -1.046875q0.28125 -0.703125 0.28125 -1.6875q0 -0.96875 -0.28125 -1.65625q-0.265625 -0.703125 -0.765625 -1.0625q-0.5 -0.359375 -1.140625 -0.359375q-0.65625 0 -1.15625 0.359375q-0.484375 0.359375 -0.765625 1.0625q-0.28125 0.6875 -0.28125 1.65625q0 0.984375 0.28125 1.6875q0.28125 0.6875 0.765625 1.046875q0.5 0.359375 1.15625 0.359375zm7.5339966 -7.265625l0.703125 0l0 9.96875l-0.703125 0l0 -9.96875z" fill-rule="nonzero"/><path fill="#00133d" d="m524.0633 739.8315l-2.640625 0l0.140625 -0.671875l6.046936 0l-0.15625 0.671875l-2.625061 0l-1.34375 6.78125l-0.78125 0l1.359375 -6.78125zm5.0613403 6.828125q-0.765625 0 -1.34375 -0.28125q-0.578125 -0.296875 -0.890625 -0.828125q-0.3125 -0.546875 -0.3125 -1.265625q0 -0.9375 0.40625 -1.6875q0.421875 -0.765625 1.15625 -1.1875q0.75 -0.4375 1.671875 -0.4375q1.171875 0 1.859375 0.640625q0.6875 0.625 0.6875 1.71875q0 0.953125 -0.421875 1.71875q-0.40625 0.75 -1.15625 1.1875q-0.734375 0.421875 -1.65625 0.421875zm0.046875 -0.671875q0.6875 0 1.234375 -0.328125q0.5625 -0.34375 0.875 -0.9375q0.328125 -0.609375 0.328125 -1.34375q0 -0.828125 -0.5 -1.28125q-0.484375 -0.46875 -1.34375 -0.46875q-0.703125 0 -1.265625 0.34375q-0.546875 0.328125 -0.859375 0.9375q-0.3125 0.609375 -0.3125 1.34375q0 0.828125 0.484375 1.28125q0.484375 0.453125 1.359375 0.453125zm10.822205 -7.28125l-1.578125 7.90625l-0.71875 0l0.1875 -0.890625q-0.40625 0.453125 -0.96875 0.703125q-0.546875 0.234375 -1.21875 0.234375q-0.71875 0 -1.28125 -0.28125q-0.546875 -0.28125 -0.859375 -0.8125q-0.296875 -0.546875 -0.296875 -1.28125q0 -0.9375 0.40625 -1.6875q0.40625 -0.765625 1.125 -1.1875q0.734375 -0.4375 1.625 -0.4375q0.796875 0 1.34375 0.3125q0.546875 0.3125 0.796875 0.890625l0.6875 -3.46875l0.75 0zm-4.140625 7.28125q0.6875 0 1.234375 -0.328125q0.5625 -0.34375 0.875 -0.9375q0.328125 -0.609375 0.328125 -1.34375q0 -0.828125 -0.5 -1.28125q-0.484375 -0.46875 -1.34375 -0.46875q-0.703125 0 -1.265625 0.34375q-0.546875 0.328125 -0.859375 0.9375q-0.3125 0.609375 -0.3125 1.34375q0 0.828125 0.484375 1.28125q0.484375 0.453125 1.359375 0.453125zm7.1781006 0.671875q-0.765625 0 -1.34375 -0.28125q-0.578125 -0.296875 -0.890625 -0.828125q-0.3125 -0.546875 -0.3125 -1.265625q0 -0.9375 0.40625 -1.6875q0.421875 -0.765625 1.15625 -1.1875q0.75 -0.4375 1.671875 -0.4375q1.171875 0 1.859375 0.640625q0.6875 0.625 0.6875 1.71875q0 0.953125 -0.421875 1.71875q-0.40625 0.75 -1.15625 1.1875q-0.734375 0.421875 -1.65625 0.421875zm0.046875 -0.671875q0.6875 0 1.234375 -0.328125q0.5625 -0.34375 0.875 -0.9375q0.328125 -0.609375 0.328125 -1.34375q0 -0.828125 -0.5 -1.28125q-0.484375 -0.46875 -1.34375 -0.46875q-0.703125 0 -1.265625 0.34375q-0.546875 0.328125 -0.859375 0.9375q-0.3125 0.609375 -0.3125 1.34375q0 0.828125 0.484375 1.28125q0.484375 0.453125 1.359375 0.453125zm5.7596436 0.671875q-0.671875 0 -1.28125 -0.1875q-0.609375 -0.1875 -0.9375 -0.484375l0.359375 -0.59375q0.328125 0.265625 0.84375 0.4375q0.515625 0.171875 1.09375 0.171875q0.796875 0 1.234375 -0.25q0.4375 -0.265625 0.4375 -0.75q0 -0.265625 -0.1875 -0.421875q-0.171875 -0.15625 -0.4375 -0.234375q-0.25 -0.09375 -0.734375 -0.203125q-0.59375 -0.125 -0.953125 -0.25q-0.359375 -0.140625 -0.625 -0.40625q-0.25 -0.28125 -0.25 -0.78125q0 -0.796875 0.65625 -1.265625q0.671875 -0.46875 1.78125 -0.46875q0.546875 0 1.0625 0.140625q0.515625 0.140625 0.828125 0.375l-0.3125 0.609375q-0.328125 -0.234375 -0.765625 -0.359375q-0.421875 -0.125 -0.875 -0.125q-0.765625 0 -1.203125 0.28125q-0.421875 0.28125 -0.421875 0.75q0 0.265625 0.171875 0.4375q0.1875 0.171875 0.453125 0.265625q0.28125 0.078125 0.75 0.171875q0.578125 0.125 0.9375 0.25q0.359375 0.125 0.609375 0.40625q0.25 0.28125 0.25 0.75q0 0.8125 -0.671875 1.28125q-0.671875 0.453125 -1.8125 0.453125zm8.87793 0q-0.765625 0 -1.34375 -0.28125q-0.578125 -0.296875 -0.890625 -0.828125q-0.3125 -0.546875 -0.3125 -1.265625q0 -0.9375 0.40625 -1.6875q0.421875 -0.765625 1.15625 -1.1875q0.75 -0.4375 1.671875 -0.4375q1.171875 0 1.859375 0.640625q0.6875 0.625 0.6875 1.71875q0 0.953125 -0.421875 1.71875q-0.40625 0.75 -1.15625 1.1875q-0.734375 0.421875 -1.65625 0.421875zm0.046875 -0.671875q0.6875 0 1.234375 -0.328125q0.5625 -0.34375 0.875 -0.9375q0.328125 -0.609375 0.328125 -1.34375q0 -0.828125 -0.5 -1.28125q-0.484375 -0.46875 -1.34375 -0.46875q-0.703125 0 -1.265625 0.34375q-0.546875 0.328125 -0.859375 0.9375q-0.3125 0.609375 -0.3125 1.34375q0 0.828125 0.484375 1.28125q0.484375 0.453125 1.359375 0.453125zm5.7596436 0.671875q-0.671875 0 -1.28125 -0.1875q-0.609375 -0.1875 -0.9375 -0.484375l0.359375 -0.59375q0.328125 0.265625 0.84375 0.4375q0.515625 0.171875 1.09375 0.171875q0.796875 0 1.234375 -0.25q0.4375 -0.265625 0.4375 -0.75q0 -0.265625 -0.1875 -0.421875q-0.171875 -0.15625 -0.4375 -0.234375q-0.25 -0.09375 -0.734375 -0.203125q-0.59375 -0.125 -0.953125 -0.25q-0.359375 -0.140625 -0.625 -0.40625q-0.25 -0.28125 -0.25 -0.78125q0 -0.796875 0.65625 -1.265625q0.671875 -0.46875 1.78125 -0.46875q0.546875 0 1.0625 0.140625q0.515625 0.140625 0.828125 0.375l-0.3125 0.609375q-0.328125 -0.234375 -0.765625 -0.359375q-0.421875 -0.125 -0.875 -0.125q-0.765625 0 -1.203125 0.28125q-0.421875 0.28125 -0.421875 0.75q0 0.265625 0.171875 0.4375q0.1875 0.171875 0.453125 0.265625q0.28125 0.078125 0.75 0.171875q0.578125 0.125 0.9375 0.25q0.359375 0.125 0.609375 0.40625q0.25 0.28125 0.25 0.75q0 0.8125 -0.671875 1.28125q-0.671875 0.453125 -1.8125 0.453125zm8.03418 -7.5l2.828125 0q1.109375 0 1.90625 0.375q0.796875 0.359375 1.203125 1.046875q0.40625 0.6875 0.40625 1.609375q0 1.296875 -0.578125 2.296875q-0.5625 1.0 -1.625 1.5625q-1.046875 0.5625 -2.421875 0.5625l-3.21875 0l1.5 -7.453125zm1.734375 6.765625q1.15625 0 2.015625 -0.46875q0.875 -0.46875 1.34375 -1.3125q0.46875 -0.84375 0.46875 -1.921875q0 -1.109375 -0.71875 -1.75q-0.71875 -0.640625 -2.09375 -0.640625l-2.109375 0l-1.21875 6.09375l2.3125 0zm6.520935 -4.921875l0.75 0l-1.109375 5.609375l-0.75 0l1.109375 -5.609375zm0.703125 -1.21875q-0.21875 0 -0.359375 -0.140625q-0.140625 -0.15625 -0.140625 -0.359375q0 -0.25 0.15625 -0.40625q0.171875 -0.171875 0.421875 -0.171875q0.21875 0 0.375 0.140625q0.15625 0.140625 0.15625 0.34375q0 0.25 -0.171875 0.421875q-0.171875 0.171875 -0.4375 0.171875zm2.694641 2.25q0.375 -0.546875 0.9375 -0.796875q0.5625 -0.265625 1.359375 -0.265625l-0.125 0.734375l-0.21875 -0.015625q-0.90625 0 -1.484375 0.53125q-0.578125 0.515625 -0.78125 1.546875l-0.578125 2.84375l-0.75 0l1.109375 -5.609375l0.71875 0l-0.1875 1.03125zm3.1970215 1.984375q-0.015625 0.078125 -0.015625 0.234375q0 0.84375 0.484375 1.296875q0.484375 0.4375 1.453125 0.4375q0.546875 0 1.03125 -0.171875q0.484375 -0.1875 0.796875 -0.53125l0.34375 0.546875q-0.390625 0.390625 -0.984375 0.609375q-0.59375 0.21875 -1.25 0.21875q-1.21875 0 -1.921875 -0.625q-0.6875 -0.640625 -0.6875 -1.75q0 -0.9375 0.390625 -1.6875q0.40625 -0.765625 1.109375 -1.1875q0.71875 -0.4375 1.59375 -0.4375q1.125 0 1.78125 0.640625q0.65625 0.625 0.65625 1.734375q0 0.296875 -0.0625 0.671875l-4.71875 0zm2.328125 -2.421875q-0.84375 0 -1.453125 0.515625q-0.59375 0.5 -0.796875 1.34375l4.0 0q0 -0.078125 0 -0.203125q0 -0.78125 -0.484375 -1.21875q-0.46875 -0.4375 -1.265625 -0.4375zm4.5145874 -0.59375l0.75 0l-1.109375 5.609375l-0.75 0l1.109375 -5.609375zm0.703125 -1.21875q-0.21875 0 -0.359375 -0.140625q-0.140625 -0.15625 -0.140625 -0.359375q0 -0.25 0.15625 -0.40625q0.171875 -0.171875 0.421875 -0.171875q0.21875 0 0.375 0.140625q0.15625 0.140625 0.15625 0.34375q0 0.25 -0.171875 0.421875q-0.171875 0.171875 -0.4375 0.171875zm2.2728271 5.140625q-0.046875 0.25 -0.046875 0.34375q0 0.75 0.8125 0.75q0.484375 0 0.859375 -0.296875l0.1875 0.578125q-0.484375 0.359375 -1.25 0.359375q-0.625 0 -1.0 -0.328125q-0.359375 -0.34375 -0.359375 -0.9375q0 -0.234375 0.03125 -0.4375l0.65625 -3.3125l-0.984375 0l0.109375 -0.640625l1.0 0l0.25 -1.21875l0.75 0l-0.234375 1.21875l1.703125 0l-0.125 0.640625l-1.71875 0l-0.640625 3.28125zm5.4050293 1.734375q-0.765625 0 -1.34375 -0.28125q-0.578125 -0.296875 -0.890625 -0.828125q-0.3125 -0.546875 -0.3125 -1.265625q0 -0.9375 0.40625 -1.6875q0.421875 -0.765625 1.15625 -1.1875q0.75 -0.4375 1.671875 -0.4375q1.171875 0 1.859375 0.640625q0.6875 0.625 0.6875 1.71875q0 0.953125 -0.421875 1.71875q-0.40625 0.75 -1.15625 1.1875q-0.734375 0.421875 -1.65625 0.421875zm0.046875 -0.671875q0.6875 0 1.234375 -0.328125q0.5625 -0.34375 0.875 -0.9375q0.328125 -0.609375 0.328125 -1.34375q0 -0.828125 -0.5 -1.28125q-0.484375 -0.46875 -1.34375 -0.46875q-0.703125 0 -1.265625 0.34375q-0.546875 0.328125 -0.859375 0.9375q-0.3125 0.609375 -0.3125 1.34375q0 0.828125 0.484375 1.28125q0.484375 0.453125 1.359375 0.453125zm5.7597046 0.671875q-0.671875 0 -1.28125 -0.1875q-0.609375 -0.1875 -0.9375 -0.484375l0.359375 -0.59375q0.328125 0.265625 0.84375 0.4375q0.515625 0.171875 1.09375 0.171875q0.796875 0 1.234375 -0.25q0.4375 -0.265625 0.4375 -0.75q0 -0.265625 -0.1875 -0.421875q-0.171875 -0.15625 -0.4375 -0.234375q-0.25 -0.09375 -0.734375 -0.203125q-0.59375 -0.125 -0.953125 -0.25q-0.359375 -0.140625 -0.625 -0.40625q-0.25 -0.28125 -0.25 -0.78125q0 -0.796875 0.65625 -1.265625q0.671875 -0.46875 1.78125 -0.46875q0.546875 0 1.0625 0.140625q0.515625 0.140625 0.828125 0.375l-0.3125 0.609375q-0.328125 -0.234375 -0.765625 -0.359375q-0.421875 -0.125 -0.875 -0.125q-0.765625 0 -1.203125 0.28125q-0.421875 0.28125 -0.421875 0.75q0 0.265625 0.171875 0.4375q0.1875 0.171875 0.453125 0.265625q0.28125 0.078125 0.75 0.171875q0.578125 0.125 0.9375 0.25q0.359375 0.125 0.609375 0.40625q0.25 0.28125 0.25 0.75q0 0.8125 -0.671875 1.28125q-0.671875 0.453125 -1.8125 0.453125zm13.377869 -5.390625q0 1.140625 -0.609375 1.875q-0.59375 0.71875 -1.671875 0.96875l1.40625 2.5l-0.859375 0l-1.34375 -2.375q-0.109375 0.015625 -0.390625 0.015625l-2.109375 0l-0.46875 2.359375l-0.796875 0l1.5 -7.453125l2.6875 0q1.265625 0 1.953125 0.5625q0.703125 0.546875 0.703125 1.546875zm-3.4375 2.296875q1.28125 0 1.96875 -0.5625q0.6875 -0.5625 0.6875 -1.671875q0 -0.734375 -0.5 -1.109375q-0.5 -0.390625 -1.4375 -0.390625l-1.984375 0l-0.75 3.734375l2.015625 0zm4.845215 0.453125q-0.015625 0.078125 -0.015625 0.234375q0 0.84375 0.484375 1.296875q0.484375 0.4375 1.453125 0.4375q0.546875 0 1.03125 -0.171875q0.484375 -0.1875 0.796875 -0.53125l0.34375 0.546875q-0.390625 0.390625 -0.984375 0.609375q-0.59375 0.21875 -1.25 0.21875q-1.21875 0 -1.921875 -0.625q-0.6875 -0.640625 -0.6875 -1.75q0 -0.9375 0.390625 -1.6875q0.40625 -0.765625 1.109375 -1.1875q0.71875 -0.4375 1.59375 -0.4375q1.125 0 1.78125 0.640625q0.65625 0.625 0.65625 1.734375q0 0.296875 -0.0625 0.671875l-4.71875 0zm2.328125 -2.421875q-0.84375 0 -1.453125 0.515625q-0.59375 0.5 -0.796875 1.34375l4.0 0q0 -0.078125 0 -0.203125q0 -0.78125 -0.484375 -1.21875q-0.46875 -0.4375 -1.265625 -0.4375zm5.0301514 5.0625q-0.671875 0 -1.28125 -0.1875q-0.609375 -0.1875 -0.9375 -0.484375l0.359375 -0.59375q0.328125 0.265625 0.84375 0.4375q0.515625 0.171875 1.09375 0.171875q0.796875 0 1.234375 -0.25q0.4375 -0.265625 0.4375 -0.75q0 -0.265625 -0.1875 -0.421875q-0.171875 -0.15625 -0.4375 -0.234375q-0.25 -0.09375 -0.734375 -0.203125q-0.59375 -0.125 -0.953125 -0.25q-0.359375 -0.140625 -0.625 -0.40625q-0.25 -0.28125 -0.25 -0.78125q0 -0.796875 0.65625 -1.265625q0.671875 -0.46875 1.78125 -0.46875q0.546875 0 1.0625 0.140625q0.515625 0.140625 0.828125 0.375l-0.3125 0.609375q-0.328125 -0.234375 -0.765625 -0.359375q-0.421875 -0.125 -0.875 -0.125q-0.765625 0 -1.203125 0.28125q-0.421875 0.28125 -0.421875 0.75q0 0.265625 0.171875 0.4375q0.1875 0.171875 0.453125 0.265625q0.28125 0.078125 0.75 0.171875q0.578125 0.125 0.9375 0.25q0.359375 0.125 0.609375 0.40625q0.25 0.28125 0.25 0.75q0 0.8125 -0.671875 1.28125q-0.671875 0.453125 -1.8125 0.453125zm4.2891235 -2.640625q-0.015625 0.078125 -0.015625 0.234375q0 0.84375 0.484375 1.296875q0.484375 0.4375 1.453125 0.4375q0.546875 0 1.03125 -0.171875q0.484375 -0.1875 0.796875 -0.53125l0.34375 0.546875q-0.390625 0.390625 -0.984375 0.609375q-0.59375 0.21875 -1.25 0.21875q-1.21875 0 -1.921875 -0.625q-0.6875 -0.640625 -0.6875 -1.75q0 -0.9375 0.390625 -1.6875q0.40625 -0.765625 1.109375 -1.1875q0.71875 -0.4375 1.59375 -0.4375q1.125 0 1.78125 0.640625q0.65625 0.625 0.65625 1.734375q0 0.296875 -0.0625 0.671875l-4.71875 0zm2.328125 -2.421875q-0.84375 0 -1.453125 0.515625q-0.59375 0.5 -0.796875 1.34375l4.0 0q0 -0.078125 0 -0.203125q0 -0.78125 -0.484375 -1.21875q-0.46875 -0.4375 -1.265625 -0.4375zm5.0457764 0.4375q0.375 -0.546875 0.9375 -0.796875q0.5625 -0.265625 1.359375 -0.265625l-0.125 0.734375l-0.21875 -0.015625q-0.90625 0 -1.484375 0.53125q-0.578125 0.515625 -0.78125 1.546875l-0.578125 2.84375l-0.75 0l1.109375 -5.609375l0.71875 0l-0.1875 1.03125zm8.620728 -1.03125l-3.59375 5.609375l-0.78125 0l-1.390625 -5.609375l0.765625 0l1.15625 4.78125l3.0625 -4.78125l0.78125 0zm6.0219727 0l-1.125 5.609375l-0.71875 0l0.1875 -0.890625q-0.40625 0.453125 -0.96875 0.703125q-0.546875 0.234375 -1.21875 0.234375q-0.71875 0 -1.28125 -0.28125q-0.546875 -0.28125 -0.859375 -0.8125q-0.296875 -0.546875 -0.296875 -1.28125q0 -0.9375 0.40625 -1.6875q0.40625 -0.765625 1.125 -1.1875q0.734375 -0.4375 1.625 -0.4375q0.796875 0 1.34375 0.3125q0.546875 0.3125 0.796875 0.890625l0.234375 -1.171875l0.75 0zm-3.6875 4.984375q0.6875 0 1.234375 -0.328125q0.5625 -0.34375 0.875 -0.9375q0.328125 -0.609375 0.328125 -1.34375q0 -0.828125 -0.5 -1.28125q-0.484375 -0.46875 -1.34375 -0.46875q-0.703125 0 -1.265625 0.34375q-0.546875 0.328125 -0.859375 0.9375q-0.3125 0.609375 -0.3125 1.34375q0 0.828125 0.484375 1.28125q0.484375 0.453125 1.359375 0.453125zm11.365662 -7.28125l-1.578125 7.90625l-0.71875 0l0.1875 -0.890625q-0.40625 0.453125 -0.96875 0.703125q-0.546875 0.234375 -1.21875 0.234375q-0.71875 0 -1.28125 -0.28125q-0.546875 -0.28125 -0.859375 -0.8125q-0.296875 -0.546875 -0.296875 -1.28125q0 -0.9375 0.40625 -1.6875q0.40625 -0.765625 1.125 -1.1875q0.734375 -0.4375 1.625 -0.4375q0.796875 0 1.34375 0.3125q0.546875 0.3125 0.796875 0.890625l0.6875 -3.46875l0.75 0zm-4.140625 7.28125q0.6875 0 1.234375 -0.328125q0.5625 -0.34375 0.875 -0.9375q0.328125 -0.609375 0.328125 -1.34375q0 -0.828125 -0.5 -1.28125q-0.484375 -0.46875 -1.34375 -0.46875q-0.703125 0 -1.265625 0.34375q-0.546875 0.328125 -0.859375 0.9375q-0.3125 0.609375 -0.3125 1.34375q0 0.828125 0.484375 1.28125q0.484375 0.453125 1.359375 0.453125zm7.1781006 0.671875q-0.765625 0 -1.34375 -0.28125q-0.578125 -0.296875 -0.890625 -0.828125q-0.3125 -0.546875 -0.3125 -1.265625q0 -0.9375 0.40625 -1.6875q0.421875 -0.765625 1.15625 -1.1875q0.75 -0.4375 1.671875 -0.4375q1.171875 0 1.859375 0.640625q0.6875 0.625 0.6875 1.71875q0 0.953125 -0.421875 1.71875q-0.40625 0.75 -1.15625 1.1875q-0.734375 0.421875 -1.65625 0.421875zm0.046875 -0.671875q0.6875 0 1.234375 -0.328125q0.5625 -0.34375 0.875 -0.9375q0.328125 -0.609375 0.328125 -1.34375q0 -0.828125 -0.5 -1.28125q-0.484375 -0.46875 -1.34375 -0.46875q-0.703125 0 -1.265625 0.34375q-0.546875 0.328125 -0.859375 0.9375q-0.3125 0.609375 -0.3125 1.34375q0 0.828125 0.484375 1.28125q0.484375 0.453125 1.359375 0.453125zm5.7596436 0.671875q-0.671875 0 -1.28125 -0.1875q-0.609375 -0.1875 -0.9375 -0.484375l0.359375 -0.59375q0.328125 0.265625 0.84375 0.4375q0.515625 0.171875 1.09375 0.171875q0.796875 0 1.234375 -0.25q0.4375 -0.265625 0.4375 -0.75q0 -0.265625 -0.1875 -0.421875q-0.171875 -0.15625 -0.4375 -0.234375q-0.25 -0.09375 -0.734375 -0.203125q-0.59375 -0.125 -0.953125 -0.25q-0.359375 -0.140625 -0.625 -0.40625q-0.25 -0.28125 -0.25 -0.78125q0 -0.796875 0.65625 -1.265625q0.671875 -0.46875 1.78125 -0.46875q0.546875 0 1.0625 0.140625q0.515625 0.140625 0.828125 0.375l-0.3125 0.609375q-0.328125 -0.234375 -0.765625 -0.359375q-0.421875 -0.125 -0.875 -0.125q-0.765625 0 -1.203125 0.28125q-0.421875 0.28125 -0.421875 0.75q0 0.265625 0.171875 0.4375q0.1875 0.171875 0.453125 0.265625q0.28125 0.078125 0.75 0.171875q0.578125 0.125 0.9375 0.25q0.359375 0.125 0.609375 0.40625q0.25 0.28125 0.25 0.75q0 0.8125 -0.671875 1.28125q-0.671875 0.453125 -1.8125 0.453125z" fill-rule="nonzero"/></g></svg>
